<svg width="24" height="24" viewBox="0 0 32 32" fill="none" xmlns="http://www.w3.org/2000/svg"><path d="M30 13.1194C27.2484 13.126 24.5643 12.2678 22.3269 10.6663V21.8363C22.3261 23.9051 21.6938 25.9243 20.5144 27.6241C19.3351 29.3238 17.6649 30.6229 15.7272 31.3478C13.7896 32.0727 11.6768 32.1888 9.67142 31.6805C7.66603 31.1722 5.86361 30.0638 4.50517 28.5035C3.14673 26.9431 2.29702 25.0053 2.06966 22.949C1.84231 20.8927 2.24814 18.8161 3.23289 16.9967C4.21764 15.1773 5.73438 13.7019 7.58028 12.7677C9.42619 11.8336 11.5133 11.4853 13.5625 11.7694V17.3875C12.6248 17.0925 11.6178 17.1014 10.6855 17.4129C9.75309 17.7243 8.94298 18.3225 8.3708 19.1218C7.79863 19.9211 7.49367 20.8808 7.49946 21.8638C7.50525 22.8468 7.8215 23.8029 8.40304 24.5954C8.98459 25.3879 9.8017 25.9765 10.7377 26.2769C11.6736 26.5774 12.6806 26.5744 13.6148 26.2684C14.549 25.9624 15.3626 25.3691 15.9395 24.5731C16.5163 23.7772 16.8269 22.8193 16.8269 21.8363V0H22.3269C22.3231 0.464463 22.362 0.928292 22.4431 1.38563C22.6342 2.40655 23.0316 3.37775 23.611 4.23983C24.1903 5.10191 24.9394 5.83674 25.8125 6.39937C27.0546 7.22068 28.5109 7.65844 30 7.65812V13.1194Z" fill="#444"></path></svg>